# xmcd CD database file
#
# Track frame offsets:
#	150
#	13787
#	29770
#	40809
#	46547
#	63172
#	84484
#	98099
#	111594
#	125515
#	138166
#	150060
#	166216
#	181185
#	193600
#	205592
#	219303
#	240322
#
# Disc length: 3493 seconds
#
# Revision: 1
# Processed by: cddbd v1.5PL3 Copyright (c) Steve Scherf et al.
# Submitted via: CDex 1.50beta10
#
DISCID=dd0da312
DTITLE=Various Artist - Salsa Festival
DYEAR=1999
DGENRE=Salsa
TTITLE0=Pa La Playa
TTITLE1=Vete De Aqui
TTITLE2=El Poder De La Musica
TTITLE3=Fiesta En La Playa
TTITLE4=Merengue Del Loco
TTITLE5=Resumen
TTITLE6=A Gozar
TTITLE7=Mi Camino
TTITLE8=Le Lo Lay
TTITLE9=Natalia
TTITLE10=Vete De Aqui
TTITLE11=Salsa Creole
TTITLE12=Se Me Fue
TTITLE13=Salsarico
TTITLE14=Havana Party
TTITLE15=Bamba En Salsa
TTITLE16=La Rumba
TTITLE17=El Poder De La Salsa
EXTD=YEAR: 1999
EXTT0=
EXTT1=
EXTT2=
EXTT3=
EXTT4=
EXTT5=
EXTT6=
EXTT7=
EXTT8=
EXTT9=
EXTT10=
EXTT11=
EXTT12=
EXTT13=
EXTT14=
EXTT15=
EXTT16=
EXTT17=
PLAYORDER=
